<?xml version="1.0" standalone="no"?>
<!DOCTYPE svg PUBLIC "-//W3C//DTD SVG 20010904//EN"
 "http://www.w3.org/TR/2001/REC-SVG-20010904/DTD/svg10.dtd">
<svg version="1.0" xmlns="http://www.w3.org/2000/svg"
 width="300.000000pt" height="300.000000pt" viewBox="0 0 300.000000 300.000000"
 preserveAspectRatio="xMidYMid meet">
<metadata>
Created by potrace 1.14, written by Peter Selinger 2001-2017
</metadata>
<g transform="translate(0.000000,300.000000) scale(0.100000,-0.100000)"
fill="#000000" stroke="none">
<path d="M0 1500 l0 -1500 1500 0 1500 0 0 1500 0 1500 -1500 0 -1500 0 0
-1500z m810 711 c0 -37 -2 -39 -43 -49 -79 -20 -80 -25 -88 -270 -4 -119 -9
-322 -11 -450 l-3 -234 25 -20 c21 -17 35 -19 83 -15 l58 5 -7 -36 c-4 -21 -9
-40 -11 -44 -6 -11 -433 -10 -433 1 0 5 3 23 6 40 6 27 12 32 48 38 25 4 52
17 68 34 l28 27 0 446 0 446 -24 16 c-14 9 -40 14 -60 13 -44 -4 -49 1 -40 46
l7 37 106 -6 c58 -3 140 -2 181 3 41 4 83 9 93 10 13 1 17 -7 17 -38z m463 25
l97 6 0 -30 c0 -43 -9 -62 -30 -62 -34 0 -136 -87 -307 -264 -95 -97 -173
-180 -173 -184 0 -7 252 -329 331 -424 44 -52 112 -103 151 -113 l25 -6 12
108 c37 321 49 468 41 489 -13 32 -53 56 -106 62 -50 5 -60 16 -46 53 l10 24
161 -5 162 -5 79 -235 c95 -285 217 -621 230 -634 5 -5 15 6 23 26 16 37 208
570 269 743 l35 100 159 5 c87 3 161 5 163 3 2 -1 1 -17 -3 -36 -6 -31 -10
-35 -48 -40 -65 -9 -92 -35 -96 -93 -7 -95 40 -758 58 -825 15 -54 34 -69 86
-69 l45 0 -7 -37 c-4 -21 -8 -41 -11 -45 -2 -4 -47 -5 -101 -2 -53 3 -134 1
-180 -3 l-83 -9 3 39 c3 36 6 40 43 53 54 18 65 37 65 108 0 72 -56 736 -63
742 -2 3 -85 -210 -183 -473 -155 -413 -182 -478 -200 -481 -25 -4 -6 -49
-230 555 -81 222 -151 397 -155 390 -3 -6 -12 -84 -18 -172 -7 -88 -21 -263
-31 -389 -11 -143 -15 -238 -9 -253 8 -21 15 -23 69 -23 l61 0 -7 -38 c-4 -20
-9 -40 -11 -45 -3 -4 -50 -5 -106 -2 -56 4 -130 2 -164 -3 l-63 -9 0 31 c0 39
8 49 45 61 43 15 72 64 80 138 3 34 8 74 11 89 l5 26 -83 -1 c-80 -2 -85 -1
-132 33 -36 25 -100 104 -238 287 -103 139 -188 261 -188 271 0 9 36 53 81 97
44 44 130 133 190 197 137 148 142 173 32 196 -36 8 -38 10 -35 42 2 19 5 37
7 40 2 3 43 2 92 -2 48 -4 132 -5 186 -2z"/>
</g>
</svg>
