<?xml version="1.0" standalone="no"?>
<!DOCTYPE svg PUBLIC "-//W3C//DTD SVG 20010904//EN"
 "http://www.w3.org/TR/2001/REC-SVG-20010904/DTD/svg10.dtd">
<svg version="1.0" xmlns="http://www.w3.org/2000/svg"
 width="300.000000pt" height="300.000000pt" viewBox="0 0 300.000000 300.000000"
 preserveAspectRatio="xMidYMid meet">
<metadata>
Created by potrace 1.14, written by Peter Selinger 2001-2017
</metadata>
<g transform="translate(0.000000,300.000000) scale(0.100000,-0.100000)"
fill="#000000" stroke="none">
<path d="M0 1500 l0 -1500 1500 0 1500 0 0 1500 0 1500 -1500 0 -1500 0 0
-1500z m808 713 c-3 -34 -7 -39 -43 -51 -22 -7 -49 -22 -60 -33 -22 -21 -18
32 -40 -676 l-7 -232 27 -27 c24 -24 32 -26 86 -22 50 4 59 2 55 -11 -2 -9 -7
-28 -10 -43 l-6 -28 -215 0 c-118 0 -215 4 -215 9 0 5 3 22 6 39 5 25 13 32
38 37 56 11 83 26 95 51 8 17 11 159 11 464 l0 439 -22 15 c-12 9 -42 16 -66
16 -41 0 -44 2 -38 23 3 12 6 30 6 40 0 18 8 19 113 13 61 -3 146 -2 187 3 41
4 81 9 88 10 9 1 12 -10 10 -36z m562 2 c0 -38 -12 -65 -29 -65 -10 0 -38 -14
-63 -30 -63 -42 -421 -408 -415 -425 8 -20 314 -405 360 -453 38 -39 108 -82
134 -82 12 0 15 17 47 339 15 148 21 243 16 257 -13 32 -51 54 -107 62 -29 4
-48 12 -47 20 1 6 2 21 3 32 1 19 8 20 165 20 l163 0 96 -282 c126 -371 210
-592 222 -590 11 1 80 182 225 592 l97 275 159 5 c88 3 161 5 163 3 2 -1 1
-17 -3 -36 -6 -31 -10 -35 -48 -40 -23 -3 -53 -14 -67 -25 -23 -17 -26 -27
-29 -88 -4 -79 34 -657 49 -754 16 -103 25 -114 87 -118 l53 -3 -7 -37 c-4
-20 -8 -40 -10 -43 -2 -4 -50 -5 -106 -2 -57 2 -138 1 -181 -4 l-78 -9 3 40
c3 37 6 41 36 47 59 12 72 33 72 113 -1 83 -55 735 -62 742 -3 2 -86 -210
-184 -473 -154 -411 -182 -478 -200 -481 -25 -4 -3 -58 -214 515 -90 243 -166
440 -170 438 -4 -2 -10 -46 -14 -97 -3 -51 -17 -232 -31 -402 -17 -212 -21
-315 -14 -327 8 -15 21 -19 70 -19 l60 0 -7 -37 c-4 -21 -8 -40 -11 -42 -2 -3
-78 -5 -168 -6 -178 -1 -173 -2 -159 51 4 14 16 24 34 28 57 11 77 55 95 205
l6 53 -70 -7 c-86 -8 -120 6 -191 79 -65 66 -380 494 -380 515 0 9 79 95 176
191 174 174 204 210 204 249 0 24 -46 51 -85 51 -22 0 -25 4 -25 33 0 19 2 36
5 39 3 3 89 5 190 5 179 -2 185 -2 185 -22z"/>
</g>
</svg>
