<?xml version="1.0" encoding="UTF-8" standalone="no"?>
<!DOCTYPE svg PUBLIC "-//W3C//DTD SVG 1.1//EN" "http://www.w3.org/Graphics/SVG/1.1/DTD/svg11.dtd">
<svg width="100%" height="100%" viewBox="0 0 9048 8584" version="1.1" xmlns="http://www.w3.org/2000/svg" xmlns:xlink="http://www.w3.org/1999/xlink" xml:space="preserve" xmlns:serif="http://www.serif.com/" style="fill-rule:evenodd;clip-rule:evenodd;stroke-linecap:round;stroke-linejoin:round;stroke-miterlimit:1.5;">
    <g transform="matrix(1,0,0,1,-442.708,-1792.61)">
        <g id="portrait-svg" serif:id="portrait svg" transform="matrix(1,0,0,1,-73.014,-1045.13)">
            <g id="black-elements" serif:id="black elements">
                <path id="black-2" d="M516.268,11420.5C949.922,10739.6 2962.83,9792.48 2962.83,9792.48C2962.83,9792.48 3190.31,8975.61 3245.5,8840.85C3290.94,8854.83 3466.18,8831.76 3466.18,8831.76L3437.14,9247.99L3596.86,9477.89C3748.5,9545.62 4177.15,9647.19 4393.75,9650.4C4122.34,9203.93 4454,9078.5 4454,9078.5L4454,8875.23C4454,8875.23 4041.67,8626.48 4041.24,8547.35C4078.09,8477.74 4412.33,8441.56 4451.46,8400.43C4490.59,8359.31 4324.8,8346.95 4276.02,8300.61C4225.6,8252.72 4204.93,8152.9 4148.97,8113.07C4093.01,8073.24 3978.3,8122.36 3940.25,8061.64C3895.38,7990.05 3879.75,7683.53 3879.75,7683.53C3625,7515.17 3878.49,6823.79 3878.49,6823.79C3878.49,6823.79 3741.24,6636.95 3643.81,6570.35C3515.88,6543.28 3347.36,6494.73 3347.36,6494.73L3268.71,6276.93C3268.71,6276.93 3203.26,6219.33 3178.5,6257.85C3178.5,6257.85 3093.94,6684.22 3096.88,6811.52C3098.67,6888.96 3190.46,6926.04 3219.9,6992.91C3254.59,7071.69 3305.29,7215.95 3305.01,7284.24C3304.75,7346.99 3155.2,7406.65 3083.22,7347.8C2905.35,7202.36 2624.2,6406.89 2744.81,6252.63C2818.48,6158.42 2978.32,6264.83 2978.32,6264.83C2978.32,6264.83 2351.91,4874.62 3326.19,3896.31C3366.44,3855.89 3428.81,3809.6 3435.92,3755.05C3616.91,2365.6 5692.33,2737.91 5969.98,3666.41C6075.97,3946.69 6475.96,4172.4 6520.52,5085.11C6521.66,5108.64 6469.46,5036.22 6469.46,5036.22L6436.98,5100.4C6436.98,5100.4 6530.28,5664.86 6375.95,6114.86C6752.53,5992.23 6504.21,6753.73 6504.21,6753.73C6504.21,6753.73 6290.4,7479.76 6090.4,7264.34C6057.09,7526.25 5845.74,8007.39 5845.74,8007.39L5883.14,8566.83L6186.84,8639.78L6500.56,9295.95L6490.52,9470.34C8813.44,10485.1 9348.57,10640.5 9562.83,11420.5L516.268,11420.5Z" style="stroke:rgb(35,31,32);stroke-width:1.09px;"/>
                <path id="black-1" d="M2955.68,7072.5C2950.4,7075.95 2961.88,7103.55 2965.33,7117.06C2968.26,7128.56 2987.82,7125.27 2997.97,7129.83C3005.82,7133.37 3021.46,7143.23 3023.08,7135.93C3025.12,7126.78 3039.14,7124.34 3040.82,7116.63C3042.5,7108.92 3035.64,7106.03 3033.16,7089.67C3032.06,7082.43 3019.7,7080.89 3013.15,7080.59C3006.6,7080.28 3000.65,7088.78 2993.85,7087.82C2984.27,7086.48 2960.95,7069.05 2955.68,7072.5Z"/>
            </g>
            <g id="white-elements" serif:id="white elements">
                <path id="white-16" d="M2984.28,6316.68C3000.26,6314.66 3010.1,6282.5 3023.08,6287.86C3036.06,6293.22 3059.02,6328.42 3062.16,6348.83C3065.3,6369.25 3055.32,6403.48 3041.93,6410.36C3028.53,6417.25 2996.57,6400.57 2981.78,6390.13C2967.87,6380.3 2963.54,6345.28 2953.24,6347.73C2942.94,6350.17 2941.84,6407.52 2919.98,6404.82C2893.37,6401.54 2834.8,6321.75 2793.59,6328.05C2726.02,6338.38 2752.46,6408.05 2758.95,6449.72C2769.39,6516.79 2848.96,6615.65 2856.23,6730.49C2857.7,6753.68 2906.59,6546.34 2898.36,6446.95C2919.87,6430.5 2946.68,6460.81 2956.06,6480.04C2970.63,6509.9 3034.03,6498.39 3068.26,6588.86C3046.71,6613.78 2980.32,6653.09 2930.2,6675.18C2899.59,6727.43 2897.98,6876.35 2937.72,6973.83C2948.56,7000.45 2977.15,7014.88 2997.03,7012.36C3019.94,7009.45 3055.05,6955.08 3075.19,6956.37C3095.33,6957.66 3087.03,7007.11 3107.89,7015.96C3129.79,7025.25 3190.62,7018.18 3206.56,7012.08C3216.79,7008.17 3211.31,6987.06 3203.51,6979.38C3190.26,6966.3 3135.7,6948.29 3127.02,6933.64C3118.74,6919.69 3153.97,6897.46 3166.65,6907.59C3194.88,6930.13 3273.2,7028.06 3273.2,7089.13C3273.2,7113.02 3291.51,7125.35 3286.38,7139.85C3283.47,7148.11 3269.31,7147.99 3265.6,7155.93C3256.13,7176.16 3257.87,7237.26 3229.57,7261.25C3200.46,7285.91 3129.42,7330.68 3090.99,7303.93C3077.63,7294.64 3088.82,7359.52 3075.47,7350.22C3049.55,7332.15 2976.08,7252.02 2935.5,7195.56C2891.34,7134.12 2842.2,7057.87 2810.5,6981.59C2774.42,6894.8 2741.3,6774.09 2719.04,6674.78C2697.73,6579.76 2680.1,6458.51 2676.91,6385.7C2674.73,6335.89 2683.24,6271.78 2699.91,6237.9C2713.89,6209.51 2745.37,6184.34 2776.96,6182.43C2814.24,6180.18 2909.95,6216.61 2923.58,6224.39C2937.21,6232.17 2869.9,6225.13 2858.72,6229.1C2852.68,6231.25 2852.16,6243.51 2856.51,6248.23C2867.45,6260.1 2903.12,6288.92 2924.41,6300.33C2942.65,6310.1 2967.83,6318.76 2984.28,6316.68Z" style="fill:white;"/>
                <path id="white-15" d="M3314.94,6106.65C3309.72,6113.33 3284.98,6098.78 3281.09,6088.89C3277.2,6078.99 3280.84,6056.7 3291.6,6047.27C3308.41,6032.55 3349.22,6009.47 3381.93,6000.58C3426.42,5988.49 3563.23,5963.59 3545.24,5991.49C3503.25,6056.62 3522.19,6103.29 3512.98,6163.05C3508.85,6189.81 3442.72,6184.66 3418.47,6172.62C3399.19,6163.05 3399.8,6052.9 3388.44,6022.12C3372.32,6003.31 3316.59,6035.09 3305.26,6048.63C3293.92,6062.16 3320.16,6099.97 3314.94,6106.65Z" style="fill:white;"/>
                <path id="white-14" d="M3657.07,6152.49C3647.6,6152.49 3622.99,6175.31 3614.95,6188.59C3607.36,6201.14 3601.25,6224.82 3608.86,6232.16C3616.47,6239.51 3650.14,6239.93 3660.62,6232.67C3671.11,6225.41 3672.38,6201.96 3671.79,6188.59C3671.22,6175.61 3666.55,6152.49 3657.07,6152.49Z" style="fill:white;"/>
                <path id="white-13" d="M3644.35,6549.01L3365.49,6474.06L3296.76,6313.44C3296.76,6313.44 3348.32,6380.97 3363.12,6378.5C3374.29,6359.8 3371.2,6342.21 3375.85,6327.19C3379.74,6314.64 3396.79,6298.33 3392.98,6291.67C3389.18,6285.01 3365.47,6292.19 3353.02,6287.23C3338.43,6281.41 3317.07,6270.73 3305.44,6256.78C3293.81,6242.82 3280.7,6215.54 3283.24,6203.49C3285.77,6191.44 3307.13,6182.56 3320.66,6184.46C3334.2,6186.36 3350.94,6203.34 3364.43,6214.91C3390.44,6237.22 3438.45,6291.35 3476.72,6318.31C3512.44,6343.47 3558.77,6350.94 3594.08,6376.67C3630.34,6403.11 3685.6,6447.64 3694.31,6476.9C3702.8,6505.45 3644.35,6549.01 3644.35,6549.01Z" style="fill:white;"/>
                <path id="white-12" d="M3391.11,5924.4C3467.57,5934.56 3157.19,5957.73 3157.19,5957.73C3036.53,5589.59 3235.99,5278.25 3268.2,5098.54C3281.97,5021.77 3316.08,4949.49 3350.47,4879.48C3418.79,4740.43 3657.2,4539.02 3897.73,4562.35C4056.96,4650.12 3992.94,4808.32 3910.33,4954.72C3957.76,5049.58 4057.18,5077.63 4151.39,5103.77C4242.86,5129.14 4467.92,5052.79 4466.9,5181.31C4466.3,5257.39 4145.67,5406.6 3982.73,5498.24C3832.53,5582.7 3562.61,5579.74 3468.63,5648.65C3389.51,5706.68 3225.09,5902.37 3391.11,5924.4Z" style="fill:white;"/>
                <path id="white-11" d="M4173.26,7686.1C4173.26,7686.1 4118.85,7757.75 4097.77,7793.94C4067.24,7846.38 4091.43,7928.43 4091.43,7928.43C4171.62,7929.38 4202.13,7967.12 4202.13,7967.12C4202.13,7967.12 4254.94,7996.19 4259.53,7969.03C4271.74,7896.81 4309.2,7905.57 4340.1,7880.22C4439.27,7798.8 4251,7724.64 4173.26,7686.1" style="fill:white;"/>
                <path id="white-10" d="M6149.72,5974.38C6128.28,5943.09 6106.2,5935.78 6078.59,5933.13C6059.75,5947.36 6036.53,6033.44 6048.38,6040.31C6060.24,6047.19 6119.49,6001.03 6149.72,5974.38" style="fill:white;"/>
                <path id="white-9" d="M4422.8,3127.69C4422.8,3127.69 4363.8,3147.19 4342.51,3168.33C4318.72,3191.95 4266.68,3276.2 4280.07,3269.43C4293.45,3262.66 4387.89,3183.06 4422.8,3127.69" style="fill:white;"/>
                <path id="white-8" d="M3579.03,3654.74C3580.81,3656.47 3593.85,3627.48 3597.74,3554.7C3609.57,3464.32 3631.9,3438.71 3629.7,3439.85C3598.57,3456.05 3596.05,3488.75 3587.09,3544.31C3543.29,3634.94 3577.26,3653.01 3579.03,3654.74Z" style="fill:white;"/>
                <path id="white-7" d="M3676.21,3425.82L3673.88,3383.99L3682.97,3371L3704.54,3366.32C3704.54,3366.32 3706.87,3390.74 3704.8,3396.2C3702.72,3401.66 3676.21,3425.82 3676.21,3425.82" style="fill:white;"/>
                <path id="white-6" d="M3660.1,3455.45L3624.51,3529.24L3623.99,3566.14L3648.15,3508.45L3660.1,3455.45" style="fill:white;"/>
                <path id="white-5" d="M3819.64,3215.61L3769.24,3255.11L3738.58,3291.49L3738.06,3312.53L3757.8,3304.74L3819.64,3215.61Z" style="fill:white;"/>
                <path id="white-4" d="M3535.64,3518.85L3557.99,3495.2L3558.51,3462.2L3581.37,3439.82L3580.07,3404.78C3580.07,3404.78 3626.06,3389.7 3649.97,3347.61C3673.88,3305.52 3700.12,3264.07 3700.12,3264.07L3705.66,3245.49L3679.33,3232.5L3673.88,3252.51L3652.05,3264.07L3642.04,3246.53L3697.78,3207.82C3697.78,3207.82 3810.25,3136.53 3833.16,3125.71C3838.36,3123.25 3839.01,3138.51 3835.24,3142.86C3816.57,3164.38 3721.16,3254.85 3721.16,3254.85L3715.97,3281.61L3724.84,3284.73C3807.86,3184.26 3984.42,3068.66 4000.36,3043.66C4007.1,3015.66 4000.36,3043.66 4000.36,3043.66L4049.57,3013.71C4052.96,3010.33 4063.55,3000.62 4069.87,2993.45C4077.32,2984.99 4085.55,2972.49 4094.29,2962.92C4103.03,2953.36 4112.52,2944.46 4122.36,2936.03C4137.51,2923.04 4156.55,2899.14 4201.6,2880.07C4214.45,2874.63 3991.66,2927.97 3991.66,2927.97L3865.64,3004.1L3705.66,3142.08L3523.43,3354.63L3579.55,3322.93L3597.33,3319.03L3597.33,3344.23L3571.24,3366.32L3570.2,3401.92C3541.14,3455.45 3535.64,3518.85 3535.64,3518.85" style="fill:white;"/>
                <path id="white-3" d="M6169.21,6101.05C6156.55,6298.74 6159.7,6387.41 6045.15,6433.64C6018.71,6430.89 6061.17,6197.24 6097.44,6158.86C6082.49,6103.43 6059.9,6118.01 6052.28,6111.77C6052.28,6111.77 6047.09,6095.14 6053.58,6093.9C6063.27,6092.06 6082.48,6079.82 6110.42,6100.72C6125.43,6106.2 6144.54,6103.39 6144.54,6103.39L6169.21,6101.05Z" style="fill:white;"/>
                <path id="white-2" d="M4745.74,6133.85C4607.3,6110.72 4533.09,6465.24 4431.53,6569.98C4450.65,6679.36 4368.29,6786.06 4368.29,6786.06C4368.29,6786.06 4268.51,6902.53 4294.74,6994.22C4294.74,6994.22 4431.2,6790.36 4555.43,6848.51C4749.55,6796.56 4801.24,6737.87 4816.11,6696.86C4859.46,6577.29 4745.74,6133.85 4745.74,6133.85Z" style="fill:white;"/>
                <path id="white-1" d="M3747.6,6141.8L3719.97,6141.96L3714.96,6152.42L3713.22,6162.83L3731.25,6163.05L3747.82,6153.57L3747.6,6141.8Z" style="fill:white;"/>
            </g>
        </g>
    </g>
</svg>
