<svg width="109" height="109" viewBox="0 0 109 109" fill="none" xmlns="http://www.w3.org/2000/svg">
<path d="M62.069 100.682V82.495C62.069 80.0273 64.0692 78.0286 66.5354 78.0286C75.3356 78.0286 80.123 69.0033 80.7875 51.1871H66.5354C64.0696 51.1871 62.069 49.1856 62.069 46.7207V8.31788C62.069 5.8511 64.0692 3.85238 66.5354 3.85238H104.533C106.999 3.85238 109 5.85328 109 8.31788V46.721C109 55.2608 108.138 63.0973 106.445 70.0184C104.707 77.1134 102.038 83.3162 98.5149 88.4565C94.8916 93.7389 90.3552 97.884 85.0397 100.771C79.684 103.676 73.4583 105.15 66.5335 105.15C64.0696 105.149 62.069 103.148 62.069 100.682ZM4.4655 78.027C1.99966 78.027 0 80.0273 0 82.4916V100.682C0 103.148 1.99966 105.147 4.4655 105.147C11.3869 105.147 17.6156 103.672 22.9679 100.767C28.2862 97.8809 32.822 93.7392 36.445 88.4531C39.9703 83.3128 42.6388 77.1096 44.3774 70.0112C46.0708 63.0902 46.931 55.2533 46.931 46.7173V8.31414C46.931 5.84735 44.9295 3.84863 42.4646 3.84863H4.4655C1.99966 3.84863 0 5.84923 0 8.31414V46.7173C0 49.1837 1.99966 51.1837 4.4655 51.1837H18.5174C17.8611 69.0014 13.1426 78.027 4.4655 78.027Z" fill="white" fill-opacity="0.12"/>
</svg>
